<?xml version="1.0" standalone="yes"?>
<svg xmlns="http://www.w3.org/2000/svg" width="300" height="300">
<path style="fill:#000000; stroke:none;" d="M0 0L0 300L300 300L300 0L0 0z"/>
<path style="fill:#ffffff; stroke:none;" d="M41 17C41.6498 18.2997 41.1468 18 43 18C40.4294 18.5629 38.6074 18.4357 36 18C36.6498 19.2997 36.1468 19 38 19C35.7793 19.3904 34.246 19.3354 32 19C32.6498 20.2997 32.1468 20 34 20C32.1532 20.2104 30.8567 20.194 29 20C29.6498 21.2997 29.1468 21 31 21C21.9055 22.4726 10.5887 28.2191 12 39L11 37L10 47C12.4358 47 11.615 47.7861 11 50L13 49L12 52L14 51C16.3404 56.851 22.4451 60.6855 28 63C41.999 68.8329 59.0411 67.653 73 63C81.2302 60.2566 89.698 55.2079 92 46C93.1196 41.5215 91.1504 35.2255 89 32C87.2169 29.3253 84.1955 27.7564 82 26L83 25C80.3511 25.5298 79.3931 25.4278 80 23L77 24L78 22L75 23L76 21C73.0501 21.9833 72.3783 22.4869 73 20C70.0501 20.9833 69.3783 21.4869 70 19C67.5941 19.802 67.3086 20.3852 65 19L66 18C63.4543 18.8486 62.484 19.4904 60 18L61 17C54.4238 18.5657 47.6092 18.227 41 17z"/>
<path style="fill:#000000; stroke:none;" d="M45 21L45 47L56 47L56 21L45 21M12 36C16.9186 30.5492 21.1048 25.9758 28 23C21.1547 21.8813 13.9922 30.1404 12 36z"/>
<path style="fill:#ed1c24; stroke:none;" d="M46 22L46 46L55 46L55 22L46 22z"/>
<path style="fill:#000000; stroke:none;" d="M45 49L45 59L55 59L55 49L45 49z"/>
<path style="fill:#ed1c24; stroke:none;" d="M46 50L46 58L54 58L54 50L46 50z"/>
<path style="fill:#b4b4b4; stroke:none;" d="M150 64.4252C123.419 68.0435 98.8147 82.5254 87.8727 108C66.9903 156.617 110.636 211.977 163 205.715C198.191 201.506 228.289 176.59 231.83 140C236.018 96.7233 192.115 58.6924 150 64.4252z"/>
<path style="fill:#ffffff; stroke:none;" d="M74 74C74.683 72.494 74.8259 71.6852 75 70C75.7554 72.0123 76.3207 74.7635 78.314 75.9545C81.1979 77.6775 84.9032 75.4197 84.534 72.0394C84.1349 68.3864 79.1452 66.8427 76.3179 68.7693C74.4658 70.0313 74.3124 72.0047 74 74z"/>
<path style="fill:#000000; stroke:none;" d="M77 68L76 70C77.2627 69.0287 77.3919 69.3063 77 68z"/>
<path style="fill:#ffffff; stroke:none;" d="M87 79L87 82L86 80C81.9205 86.0802 87.1326 89.2587 93 88C92.4023 86.8046 92.5339 87.0226 91 86L94 86C92.4689 82.2117 90.7883 80.5311 87 79z"/>
<path style="fill:#000000; stroke:none;" d="M85 82C85.815 85.8221 87.1779 87.185 91 88C88.7954 86.1277 86.8723 84.2046 85 82M119 98L119 140L140 140L140 98L119 98M166 98L166 139L186 139L186 98L166 98z"/>
<path style="fill:#ed1c24; stroke:none;" d="M123 102L123 136L136 136L136 102L123 102M170 102L170 135L182 135L182 102L170 102z"/>
<path style="fill:#000000; stroke:none;" d="M147 157.439C131.955 159.808 115.176 176.003 128.225 190.96C136.615 200.577 150.987 202.453 163 200.561C178.045 198.192 194.824 181.997 181.775 167.04C173.385 157.423 159.013 155.547 147 157.439z"/>
<path style="fill:#990030; stroke:none;" d="M150 161.439C146.56 161.981 143.128 162.813 140 164.378C137.504 165.627 135.106 167.228 133.108 169.185C126.176 175.977 127.73 184.687 135.015 190.471C141.842 195.89 151.469 197.904 160 196.561C163.44 196.019 166.872 195.187 170 193.622C172.496 192.373 174.894 190.772 176.892 188.815C183.824 182.023 182.27 173.313 174.985 167.529C168.158 162.11 158.531 160.096 150 161.439z"/>
</svg>
