<?xml version="1.0" standalone="yes"?>
<svg xmlns="http://www.w3.org/2000/svg" width="300" height="300">
<path style="fill:#000000; stroke:none;" d="M0 0L0 300L300 300L300 0L0 0z"/>
<path style="fill:#ffffff; stroke:none;" d="M41 17C41.6498 18.2997 41.1468 18 43 18C40.4294 18.5629 38.6074 18.4357 36 18C36.6498 19.2997 36.1468 19 38 19C35.7793 19.3904 34.246 19.3354 32 19C32.6498 20.2997 32.1468 20 34 20C32.1532 20.2104 30.8567 20.194 29 20C29.6498 21.2997 29.1468 21 31 21C21.9055 22.4726 10.5887 28.2191 12 39L11 37L10 47C12.4358 47 11.615 47.7861 11 50L13 49L12 52L14 51C16.3404 56.851 22.4451 60.6855 28 63C41.999 68.8329 59.0411 67.653 73 63C81.2302 60.2566 89.698 55.2079 92 46C93.1196 41.5215 91.1504 35.2255 89 32C87.2169 29.3253 84.1955 27.7564 82 26L83 25C80.3511 25.5298 79.3931 25.4278 80 23L77 24L78 22L75 23L76 21C73.0501 21.9833 72.3783 22.4869 73 20C70.0501 20.9833 69.3783 21.4869 70 19C67.5941 19.802 67.3086 20.3852 65 19L66 18C63.4543 18.8486 62.484 19.4904 60 18L61 17C54.4238 18.5657 47.6092 18.227 41 17z"/>
<path style="fill:#000000; stroke:none;" d="M48 22C50.1236 21.1007 50.1007 21.1236 51 19C48.8764 19.8993 48.8993 19.8764 48 22M39 20C39.5257 22.5431 39.8778 23.535 42 25C41.4743 22.4569 41.1222 21.465 39 20M57 25C59.6866 23.6759 60.6759 22.6866 62 20C59.3134 21.3241 58.3241 22.3134 57 25M12 36C16.9186 30.5492 21.1048 25.9758 28 23C21.1547 21.8813 13.9922 30.1404 12 36M28 24C29.4821 27.104 30.8959 28.5179 34 30C32.5179 26.8959 31.1041 25.4821 28 24M63 28C66.2018 27.416 68.1843 26.7422 70 24C66.7983 24.584 64.8157 25.2578 63 28M47 25.5324C26.7527 30.3253 35.3845 59.1109 55 54.4676C75.2473 49.6748 66.6155 20.8891 47 25.5324z"/>
<path style="fill:#fff200; stroke:none;" d="M48 27.5363C30.4917 31.4987 37.1071 56.2868 54 52.4637C71.5083 48.5014 64.893 23.7131 48 27.5363z"/>
<path style="fill:#000000; stroke:none;" d="M68 35C71.427 34.483 74.0002 33.9203 76 31C72.573 31.517 69.9997 32.0797 68 35M24 34C25.9997 36.9203 28.573 37.483 32 38C30.0002 35.0797 27.427 34.517 24 34M70 39L70 41L79 41L79 39L70 39M27 46C29.7434 45.5618 31.3253 45.2209 33 43C30.1229 43.3184 28.6656 43.62 27 46M66 48C67.5354 50.7957 69.0344 51.8259 72 53C70.4831 50.0822 69.1074 49.0777 66 48M29 54C32.2018 53.416 34.1843 52.7422 36 50C32.7982 50.584 30.8157 51.2578 29 54M35 59C38.2018 58.416 40.1843 57.7422 42 55C38.7982 55.584 36.8157 56.2578 35 59M60 55C60.9391 57.6374 61.5797 58.6181 64 60C63.0609 57.3626 62.4203 56.3819 60 55M49 56L49 61L51 61L51 56L49 56z"/>
<path style="fill:#b4b4b4; stroke:none;" d="M150 64.4252C123.419 68.0435 98.8147 82.5254 87.8727 108C66.9903 156.617 110.636 211.977 163 205.715C198.191 201.506 228.289 176.59 231.83 140C236.018 96.7233 192.115 58.6924 150 64.4252z"/>
<path style="fill:#ffffff; stroke:none;" d="M74 74C74.683 72.494 74.8259 71.6852 75 70C75.7554 72.0123 76.3207 74.7635 78.314 75.9545C81.1979 77.6775 84.9032 75.4197 84.534 72.0394C84.1349 68.3864 79.1452 66.8427 76.3179 68.7693C74.4658 70.0313 74.3124 72.0047 74 74z"/>
<path style="fill:#000000; stroke:none;" d="M77 68L76 70C77.2627 69.0287 77.3919 69.3063 77 68z"/>
<path style="fill:#ffffff; stroke:none;" d="M87 79L87 82L86 80C81.9205 86.0802 87.1326 89.2587 93 88C92.4023 86.8046 92.5339 87.0226 91 86L94 86C92.4689 82.2117 90.7883 80.5311 87 79z"/>
<path style="fill:#000000; stroke:none;" d="M85 82C85.815 85.8221 87.1779 87.185 91 88C88.7954 86.1277 86.8723 84.2046 85 82M119 98L119 140L140 140L140 98L119 98M166 98L166 139L186 139L186 98L166 98z"/>
<path style="fill:#ed1c24; stroke:none;" d="M123 102L123 136L136 136L136 102L123 102M170 102L170 135L182 135L182 102L170 102z"/>
<path style="fill:#000000; stroke:none;" d="M128 155.653C121.167 157.622 115.285 164.752 119.179 171.907C121.107 175.449 125.4 177.624 129 179.07C144.102 185.136 165.898 185.136 181 179.07C184.315 177.739 188.145 175.807 190.258 172.815C193.65 168.01 191.9 159.857 185.985 157.962C179.155 155.775 169.166 163.393 162 163.91C156.134 164.333 150.33 163.127 145 160.677C139.695 158.238 134.172 153.874 128 155.653z"/>
<path style="fill:#990030; stroke:none;" d="M131 160.159C122.075 160.293 121.34 169.175 128.015 173.12C136.892 178.365 148.907 179.403 159 178.961C166.843 178.617 176.316 176.904 182.956 172.532C185.599 170.791 189.4 166.653 185.551 163.871C181.741 161.117 173.083 166.46 169 167.331C161.195 168.996 151.542 168.519 144 165.899C139.908 164.478 135.37 160.093 131 160.159z"/>
</svg>
